<svg width="51" height="51" viewBox="0 0 51 51" fill="none" xmlns="http://www.w3.org/2000/svg">
<g filter="url(#filter0_d)">
<rect x="4" width="43" height="43" fill="black"/>
<path d="M38.7852 27.4705L38.6932 27.3017C37.9568 26.1851 37.0533 25.181 36.0123 24.3226C35.6176 23.9675 35.2419 23.593 34.8868 23.2005C34.7231 23.0532 34.6134 22.858 34.5746 22.6447C34.5358 22.4313 34.57 22.2115 34.6719 22.0188C35.0199 21.3838 35.4385 20.7877 35.9202 20.2412L36.8309 19.0794C38.4476 16.994 39.1297 15.6699 38.8773 15.1072L38.7852 14.9781C38.6739 14.8678 38.5316 14.7918 38.376 14.7597C38.079 14.7 37.7725 14.7 37.4755 14.7597H33.4952C33.4056 14.7301 33.3085 14.7301 33.2189 14.7597H32.912C32.8515 14.7952 32.7992 14.8425 32.7585 14.8987C32.696 14.9707 32.6443 15.0509 32.605 15.137C32.1842 16.1904 31.6849 17.2126 31.1111 18.1956C30.7632 18.7517 30.446 19.1886 30.1493 19.6553C29.9257 19.9693 29.6759 20.2649 29.4023 20.5391C29.2315 20.7083 29.0504 20.8675 28.86 21.0158C28.7066 21.135 28.5838 21.1846 28.5019 21.1648L28.2666 21.1151C28.1331 21.0304 28.0239 20.9143 27.9494 20.7775C27.8582 20.6148 27.8025 20.4356 27.7857 20.2512V15.6137C27.8061 15.4089 27.8061 15.2027 27.7857 14.998C27.7535 14.848 27.7055 14.7015 27.6424 14.5611C27.5844 14.4229 27.4845 14.3051 27.3559 14.2234C27.1953 14.14 27.0229 14.0798 26.8443 14.0447C26.2182 13.9851 25.5877 13.9851 24.9616 14.0447C23.8363 13.9431 22.7013 14.0475 21.6157 14.3525C21.4128 14.4535 21.2321 14.5918 21.0836 14.7597C20.9097 14.9583 20.8892 15.0675 21.012 15.0874C21.2471 15.0982 21.4774 15.1559 21.6886 15.2566C21.8998 15.3574 22.0874 15.4992 22.2398 15.6733L22.3217 15.8321C22.4142 16.0359 22.4828 16.2491 22.5263 16.4677C22.5874 16.7961 22.6284 17.1277 22.6491 17.4607C22.69 18.0261 22.69 18.5935 22.6491 19.1588C22.6491 19.6355 22.557 20.0029 22.5161 20.2611C22.4665 20.5004 22.3729 20.7292 22.2398 20.9364C22.1955 21.0438 22.1407 21.1469 22.0761 21.2442L22.0045 21.3137C21.883 21.3567 21.7552 21.3802 21.6259 21.3832C21.472 21.3413 21.3314 21.2628 21.2166 21.1548C21.0031 21.0005 20.8075 20.824 20.6334 20.6285C20.3853 20.3371 20.1596 20.0285 19.9581 19.705C19.6698 19.2455 19.4068 18.7715 19.1702 18.2849L18.9349 17.8977L18.3516 16.7855C18.1138 16.3202 17.902 15.8429 17.7172 15.3555C17.6538 15.1795 17.5359 15.0269 17.3796 14.9185H17.3079C17.2544 14.8576 17.1924 14.8041 17.1238 14.7597C17.005 14.7159 16.8814 14.6859 16.7554 14.6703L12.9183 14.7001C12.7726 14.6884 12.6259 14.7071 12.4882 14.7551C12.3505 14.8031 12.2251 14.8791 12.1202 14.9781H12.0077C11.9974 15.0506 11.9974 15.1241 12.0077 15.1966C12.0192 15.3219 12.0467 15.4453 12.0895 15.564C12.6557 16.8881 13.2696 18.1294 13.9313 19.2879C14.5862 20.4696 15.1592 21.4229 15.6401 22.1479C16.121 22.8728 16.6633 23.558 17.1545 24.2035C17.6456 24.8489 18.0344 25.266 18.1777 25.4448L18.5563 25.8519L18.9042 26.1895C19.2268 26.4698 19.5687 26.7286 19.9274 26.9641C20.3997 27.2994 20.8916 27.6078 21.4008 27.8876C21.9816 28.1995 22.6003 28.4397 23.2426 28.6026C23.9109 28.8057 24.6094 28.8997 25.3095 28.8807H26.9262C27.2054 28.8784 27.4729 28.7717 27.6731 28.5828V28.5132C27.7177 28.4349 27.752 28.3515 27.7754 28.265C27.7856 28.1427 27.7856 28.0198 27.7754 27.8976C27.765 27.5444 27.7959 27.1913 27.8675 26.8449C27.9086 26.5997 27.9879 26.3619 28.1029 26.1399C28.1803 25.9906 28.2803 25.8533 28.3996 25.7327L28.6349 25.5341H28.7475C28.888 25.5053 29.0336 25.5092 29.1723 25.5455C29.311 25.5817 29.4389 25.6493 29.5456 25.7427C29.8627 25.971 30.1481 26.238 30.3949 26.5371C30.6609 26.8449 30.9883 27.2024 31.3567 27.5798C31.6657 27.9047 32.0086 28.1975 32.3799 28.4537L32.6664 28.6125C32.8944 28.7417 33.1385 28.8419 33.3929 28.9105C33.6417 28.9979 33.9095 29.0218 34.1705 28.98L37.803 28.8807C38.0866 28.8985 38.3699 28.8401 38.6215 28.7118C38.7017 28.6761 38.7738 28.6252 38.8335 28.5621C38.8933 28.499 38.9395 28.425 38.9694 28.3444C39.0102 28.1947 39.0102 28.0373 38.9694 27.8876C38.951 27.7615 38.9166 27.6381 38.8671 27.5202L38.7852 27.4705Z" fill="white"/>
</g>
<defs>
<filter id="filter0_d" x="0" y="0" width="51" height="51" filterUnits="userSpaceOnUse" color-interpolation-filters="sRGB">
<feFlood flood-opacity="0" result="BackgroundImageFix"/>
<feColorMatrix in="SourceAlpha" type="matrix" values="0 0 0 0 0 0 0 0 0 0 0 0 0 0 0 0 0 0 127 0"/>
<feOffset dy="4"/>
<feGaussianBlur stdDeviation="2"/>
<feColorMatrix type="matrix" values="0 0 0 0 0 0 0 0 0 0 0 0 0 0 0 0 0 0 0.25 0"/>
<feBlend mode="normal" in2="BackgroundImageFix" result="effect1_dropShadow"/>
<feBlend mode="normal" in="SourceGraphic" in2="effect1_dropShadow" result="shape"/>
</filter>
</defs>
</svg>
